<?xml version="1.0" encoding="utf-8"?>
<!-- Generator: Adobe Illustrator 17.0.0, SVG Export Plug-In . SVG Version: 6.00 Build 0) -->
<!DOCTYPE svg PUBLIC "-//W3C//DTD SVG 1.1//EN" "http://www.w3.org/Graphics/SVG/1.1/DTD/svg11.dtd">
<svg version="1.1" id="Layer_1" xmlns="http://www.w3.org/2000/svg" xmlns:xlink="http://www.w3.org/1999/xlink" x="0px" y="0px" width="199.911px" height="199.911px" viewBox="0 0 199.911 199.911" enable-background="new 0 0 199.911 199.911" xml:space="preserve">
	<path fill="#FFFFFF" d="M99.951,0.002C44.837,0.002,0,44.843,0,99.957s44.837,99.951,99.951,99.951
	c55.122,0,99.959-44.837,99.959-99.951S155.073,0.002,99.951,0.002z M99.951,194.197c-12.086,0-23.609-2.369-34.237-6.533
	c2.198-2.255,3.996-11.046,3.784-18.532c0.076-1.389,0.151-3.398-0.074-5.432c-1.647-14.902,6.355-22.929,20.588-20.634
	c3.028,0.488,6.267,0.928,9.223,0.382c10.121-1.872,19.368-1.257,28.073,5.322c5.079,3.839,10.597,2.486,14.644-2.795
	c3.737-4.877,7.379-9.827,11.165-14.665c8.476-10.828,7.723-15.417-0.866-26.059c-4.156-5.151-5.505-12.495-8.559-18.63
	c-2.482-4.984-5.127-10.033-8.576-14.354c-4.523-5.666-10.787-10.102-14.523-16.164c-1.696-2.754,0.897-8.143,1.523-12.339
	c0.183-1.228,0.274-2.519,0.362-3.686c0.229-3.021,0.132-6.214-2.36-7.509c-3.3-1.632-6.702,1.305-8.985,3.227
	c-5.142,4.328-9.599,9.47-14.723,14.675c-5.63-13.971-13.102-17.014-19.957-7.36c-9.373,13.2-19.537,20.69-34.845,24.517
	c-6.256,1.564-7.597,2.151-14.809,4.918c-11.207,4.3-11.243,4.566-19.004,7.791c9.056-42.578,46.92-74.624,92.155-74.624
	c51.972,0,94.248,42.276,94.248,94.244C194.199,151.921,151.923,194.197,99.951,194.197z" />
	<path display="none" d="M99.951,199.908C44.837,199.908,0,155.071,0,99.957S44.837,0.002,99.951,0.002
	c55.122,0,99.959,44.841,99.959,99.955S155.073,199.908,99.951,199.908z M99.951,5.713c-51.964,0-94.24,42.276-94.24,94.244
	c0,51.964,42.276,94.24,94.24,94.24c51.972,0,94.248-42.276,94.248-94.24C194.199,47.989,151.923,5.713,99.951,5.713z
	 M60.815,139.093c21.615,21.615,56.66,21.615,78.275,0c14.48-14.48,19.26-34.988,14.339-53.447
	c-53.477,14.31-53.477,14.31-53.477,14.31s0,0,14.33-53.471c-18.465-4.93-38.982-0.152-53.468,14.334
	C39.2,82.433,39.2,117.478,60.815,139.093z M113.771,86.125c0,0,0,0,36.017-10.281c-2.628-5.433-6.195-10.525-10.703-15.033
	c-4.505-4.505-9.594-8.072-15.024-10.699C113.771,86.125,113.771,86.125,113.771,86.125z" />
	<g display="none">
		<path display="inline" d="M99.959,0C44.837,0,0,44.841,0,99.955c0,55.118,44.837,99.955,99.959,99.955
		c55.114,0,99.951-44.837,99.951-99.955C199.911,44.841,155.073,0,99.959,0z M99.959,194.199c-51.972,0-94.248-42.276-94.248-94.244
		S47.987,5.711,99.959,5.711c51.964,0,94.24,42.276,94.24,94.244S151.923,194.199,99.959,194.199z" />
		<path display="inline" d="M89.952,104.958H56.597c-2.763,0-5.003,2.24-5.003,5.003v33.355c0,2.763,2.24,5.003,5.003,5.003h33.355
		c2.763,0,5.003-2.24,5.003-5.003v-33.355C94.955,107.198,92.715,104.958,89.952,104.958z M84.948,138.313H61.6v-23.348h23.348
		V138.313z" />
		<path display="inline" d="M89.952,51.591H56.597c-2.763,0-5.003,2.24-5.003,5.003v33.354c0,2.763,2.24,5.003,5.003,5.003h33.355
		c2.763,0,5.003-2.24,5.003-5.003V56.594C94.955,53.831,92.715,51.591,89.952,51.591z M84.948,84.945H61.6V61.597h23.348V84.945z" />
		<path display="inline" d="M143.319,51.591h-33.354c-2.763,0-5.003,2.24-5.003,5.003v33.354c0,2.763,2.24,5.003,5.003,5.003h33.354
		c2.763,0,5.003-2.24,5.003-5.003V56.594C148.322,53.831,146.082,51.591,143.319,51.591z M138.316,84.945h-23.348V61.597h23.348
		V84.945z" />
		<path display="inline" d="M143.319,104.958h-33.354c-2.763,0-5.003,2.24-5.003,5.003v33.355c0,2.763,2.24,5.003,5.003,5.003h33.354
		c2.763,0,5.003-2.24,5.003-5.003v-33.355C148.322,107.198,146.082,104.958,143.319,104.958z M138.316,138.313h-23.348v-23.348
		h23.348V138.313z" />
	</g>
	<g display="none">
		<path display="inline" d="M99.959,0C44.845,0,0,44.837,0,99.959c0,55.114,44.845,99.951,99.959,99.951s99.951-44.837,99.951-99.951
		C199.911,44.837,155.073,0,99.959,0z M99.959,194.199c-51.972,0-94.248-42.276-94.248-94.24c0-51.972,42.276-94.248,94.248-94.248
		c51.964,0,94.24,42.276,94.24,94.248C194.199,151.923,151.923,194.199,99.959,194.199z" />
		<path display="inline" d="M118.537,135.43h-16.892H79.687H50.971c-2.799,0-5.067,2.268-5.067,5.067s2.268,5.068,5.067,5.068h50.674
		h16.892c2.799,0,5.067-2.269,5.067-5.068S121.336,135.43,118.537,135.43z" />
		<path display="inline" d="M148.941,108.404h-97.97c-2.799,0-5.067,2.268-5.067,5.067c0,2.799,2.268,5.067,5.067,5.067h97.97
		c2.799,0,5.068-2.268,5.068-5.067C154.009,110.673,151.74,108.404,148.941,108.404z" />
		<path display="inline" d="M50.971,91.512h28.716h38.851c0,0,0,0,0.001,0h10.134c2.798,0,5.067-2.269,5.067-5.067
		c0-2.799-2.269-5.067-5.067-5.067h-21.959h-5.068H79.687H50.971c-2.799,0-5.067,2.268-5.067,5.067S48.172,91.512,50.971,91.512z" />
		<path display="inline" d="M148.941,54.352h-97.97c-2.799,0-5.067,2.268-5.067,5.067c0,2.798,2.268,5.067,5.067,5.067h97.97
		c2.799,0,5.068-2.269,5.068-5.067C154.009,56.62,151.74,54.352,148.941,54.352z" />
	</g>
	<g display="none">
		<path display="inline" d="M99.951,0C44.837,0,0,44.845,0,99.959s44.837,99.951,99.951,99.951c55.122,0,99.959-44.837,99.959-99.951
		S155.073,0,99.951,0z M99.951,194.199c-51.964,0-94.24-42.276-94.24-94.24c0-51.972,42.276-94.248,94.24-94.248
		c51.972,0,94.248,42.276,94.248,94.248C194.199,151.923,151.923,194.199,99.951,194.199z" />
		<path display="inline" d="M151.826,118.032c1.975-5.668,3.103-11.733,3.103-18.075c0-30.363-24.614-54.977-54.977-54.977
		c-30.363,0-54.977,24.614-54.977,54.977c0,30.363,24.614,54.977,54.977,54.977c14.329,0,27.334-5.527,37.12-14.508l18.841,1.429
		c4.159,0.319,6.086-2.499,4.282-6.26L151.826,118.032z M76.112,106.579c-3.657,0-6.622-2.965-6.622-6.622s2.965-6.622,6.622-6.622
		s6.622,2.965,6.622,6.622S79.77,106.579,76.112,106.579z M99.953,106.579c-3.657,0-6.622-2.965-6.622-6.622
		s2.965-6.622,6.622-6.622s6.622,2.965,6.622,6.622S103.61,106.579,99.953,106.579z M123.793,106.579
		c-3.657,0-6.622-2.965-6.622-6.622s2.965-6.622,6.622-6.622s6.622,2.965,6.622,6.622S127.45,106.579,123.793,106.579z" />
	</g>
</svg>
